<svg xmlns="http://www.w3.org/2000/svg" xmlns:xlink="http://www.w3.org/1999/xlink" xmlns:lucid="lucid" width="120" height="25.09"><g transform="translate(-1485 -994.9112262724225)" lucid:page-tab-id="0_0"><path d="M1485 994.9h120v25.1h-120z" fill="none"/><use xlink:href="#a" transform="matrix(1,0,0,1,1485,994.9112262724225) translate(-10.060493827160457 21.511111111111102)"/><defs><path fill="#6db1ff" d="M230 0l2-204L168 0h-37L68-204 70 0H24v-248h70l56 185 57-185h69V0h-46" id="b"/><path fill="#6db1ff" d="M24-248c120-7 223 5 221 122C244-46 201 0 124 0H24v-248zM76-40c74 7 117-18 117-86 0-67-45-88-117-82v168" id="c"/><path fill="#979ea8" d="M141-36C126-15 110 5 73 4 37 3 15-17 15-53c-1-64 63-63 125-63 3-35-9-54-41-54-24 1-41 7-42 31l-33-3c5-37 33-52 76-52 45 0 72 20 72 64v82c-1 20 7 32 28 27v20c-31 9-61-2-59-35zM48-53c0 20 12 33 32 33 41-3 63-29 60-74-43 2-92-5-92 41" id="d"/><path fill="#979ea8" d="M59-47c-2 24 18 29 38 22v24C64 9 27 4 27-40v-127H5v-23h24l9-43h21v43h35v23H59v120" id="e"/><path fill="#979ea8" d="M85-194c31 0 48 13 60 33l-1-100h32l1 261h-30c-2-10 0-23-3-31C134-8 116 4 85 4 32 4 16-35 15-94c0-66 23-100 70-100zm9 24c-40 0-46 34-46 75 0 40 6 74 45 74 42 0 51-32 51-76 0-42-9-74-50-73" id="f"/><path fill="#979ea8" d="M100-194c62-1 85 37 85 99 1 63-27 99-86 99S16-35 15-95c0-66 28-99 85-99zM99-20c44 1 53-31 53-75 0-43-8-75-51-75s-53 32-53 75 10 74 51 75" id="g"/><path fill="#979ea8" d="M114-163C36-179 61-72 57 0H25l-1-190h30c1 12-1 29 2 39 6-27 23-49 58-41v29" id="h"/><g id="a"><use transform="matrix(0.07469135802469132,0,0,0.07469135802469132,0,0)" xlink:href="#b"/><use transform="matrix(0.07469135802469132,0,0,0.07469135802469132,22.332716049382704,0)" xlink:href="#c"/><use transform="matrix(0.07469135802469132,0,0,0.07469135802469132,41.677777777777756,0)" xlink:href="#b"/><use transform="matrix(0.07469135802469132,0,0,0.07469135802469132,64.01049382716046,0)" xlink:href="#d"/><use transform="matrix(0.07469135802469132,0,0,0.07469135802469132,78.94876543209872,0)" xlink:href="#e"/><use transform="matrix(0.07469135802469132,0,0,0.07469135802469132,86.41790123456785,0)" xlink:href="#d"/><use transform="matrix(0.07469135802469132,0,0,0.07469135802469132,101.35617283950612,0)" xlink:href="#f"/><use transform="matrix(0.07469135802469132,0,0,0.07469135802469132,116.29444444444438,0)" xlink:href="#g"/><use transform="matrix(0.07469135802469132,0,0,0.07469135802469132,131.23271604938265,0)" xlink:href="#h"/></g></defs></g></svg>