<svg width="89" height="54" viewBox="0 0 89 54" fill="none" xmlns="http://www.w3.org/2000/svg">
<path d="M17.784 34.888H7.596L5.796 40H0.432L9.792 14.872H15.588L24.912 40H19.548L17.784 34.888ZM16.416 31.036L12.672 20.308L8.928 31.036H16.416ZM38.3077 35.644V40H35.6437C33.4117 40 31.6957 39.46 30.4957 38.38C29.3197 37.3 28.7317 35.5 28.7317 32.98V24.34H25.9597V20.056H28.7317V15.124H33.8077V20.056H38.2717V24.34H33.8077V33.052C33.8077 34.012 33.9997 34.684 34.3837 35.068C34.7677 35.452 35.4157 35.644 36.3277 35.644H38.3077ZM47.0363 23.872C47.7803 22.6 48.7643 21.604 49.9883 20.884C51.2123 20.14 52.5803 19.768 54.0923 19.768V25.204H52.6163C48.8963 25.204 47.0363 26.932 47.0363 30.388V40H41.9603V20.056H47.0363V23.872ZM56.3257 14.332C56.3257 13.516 56.6137 12.856 57.1897 12.352C57.7657 11.824 58.5217 11.56 59.4577 11.56C60.3937 11.56 61.1497 11.824 61.7257 12.352C62.3017 12.856 62.5897 13.516 62.5897 14.332C62.5897 15.124 62.3017 15.784 61.7257 16.312C61.1497 16.816 60.3937 17.068 59.4577 17.068C58.5217 17.068 57.7657 16.816 57.1897 16.312C56.6137 15.784 56.3257 15.124 56.3257 14.332ZM61.9777 20.056V40H56.9017V20.056H61.9777ZM74.3816 19.804C76.0616 19.804 77.5016 20.2 78.7016 20.992C79.9016 21.784 80.7536 22.852 81.2576 24.196V20.056H86.2976V40H81.2576V35.824C80.7536 37.168 79.9016 38.248 78.7016 39.064C77.5016 39.856 76.0616 40.252 74.3816 40.252C72.7016 40.252 71.1896 39.844 69.8456 39.028C68.5016 38.212 67.4456 37.036 66.6776 35.5C65.9336 33.94 65.5616 32.116 65.5616 30.028C65.5616 27.94 65.9336 26.128 66.6776 24.592C67.4456 23.032 68.5016 21.844 69.8456 21.028C71.1896 20.212 72.7016 19.804 74.3816 19.804ZM75.9656 24.232C74.3816 24.232 73.1096 24.748 72.1496 25.78C71.1896 26.812 70.7096 28.228 70.7096 30.028C70.7096 31.828 71.1896 33.244 72.1496 34.276C73.1096 35.284 74.3816 35.788 75.9656 35.788C77.5016 35.788 78.7616 35.272 79.7456 34.24C80.7536 33.184 81.2576 31.78 81.2576 30.028C81.2576 28.252 80.7536 26.848 79.7456 25.816C78.7616 24.76 77.5016 24.232 75.9656 24.232Z" fill="#fff"/>
</svg>
